. 
 
http://www.torrenting.com          :     Once & For all ;)


               www . Torrenting . Com 

(((((((((((((= Enjoy No RAR releases =))))))))))))))))))))


...................................NFO:....................................

.[IMG]http://img846.imageshack.us/img846/6015/perfectsense2011.jpg[/IMG]


[color=blue][size=5][b]Perfect.Sense.2011.R5.DVDRip.XVID.AC3.HQ.Hive-CM8[/b][/size][/color]


[b]Thx Hive

CM8 Doing It Right The First Time :D


Source: Russian DVD-9
Poslednjaja.ljubov'.na.Zemle.2011.D.DVD.ELEKTRI4KA
(had English audio on it)

Encode:
DVD had great quality, did the usual, sharpness, rgb and denoise
got very nice
enjoy

Video: 720x304 @bitrate 1700 2pass
Audio: English AC3 5.1 @256 (as on dvd)
Sample: Yes, included[/b]

 
http://www.imdb.com/title/tt1439572/


General
Complete name                  : Perfect.Sense.2011.R5.DVDRip.XVID.AC3.HQ.Hive-CM8.avi
Format                         : AVI
Format/Info                    : Audio Video Interleave
File size                      : 1.21 GiB
Duration                       : 1h 28mn
Overall bit rate               : 1 965 Kbps
Writing application            : Nandub v1.0rc2
Writing library                : Nandub build 1853/release

Video
ID                             : 0
Format                         : MPEG-4 Visual
Format profile                 : Advanced Simple@L5
Format settings, BVOP          : 2
Format settings, QPel          : Yes
Format settings, GMC           : No warppoints
Format settings, Matrix        : Default (H.263)
Muxing mode                    : Packed bitstream
Codec ID                       : XVID
Codec ID/Hint                  : XviD
Duration                       : 1h 28mn
Bit rate                       : 1 700 Kbps
Width                          : 720 pixels
Height                         : 304 pixels
Display aspect ratio           : 2.35:1
Frame rate                     : 25.000 fps
Color space                    : YUV
Chroma subsampling             : 4:2:0
Bit depth                      : 8 bits
Scan type                      : Progressive
Compression mode               : Lossy
Bits/(Pixel*Frame)             : 0.311
Stream size                    : 1.05 GiB (86%)
Writing library                : XviD 1.2.1 (UTC 2008-12-04)

Audio
ID                             : 1
Format                         : AC-3
Format/Info                    : Audio Coding 3
Mode extension                 : CM (complete main)
Codec ID                       : 2000
Duration                       : 1h 28mn
Bit rate mode                  : Constant
Bit rate                       : 256 Kbps
Channel(s)                     : 6 channels
Channel positions              : Front: L C R, Side: L R, LFE
Sampling rate                  : 48.0 KHz
Bit depth                      : 16 bits
Compression mode               : Lossy
Stream size                    : 162 MiB (13%)
Alignment                      : Split accross interleaves
Interleave, duration           : 40 ms (1.00 video frame)
Interleave, preload duration   : 500 ms


Plot:
A chef and a scientist fall in love as an epidemic begins to
rob people of their sensory perceptions.


Cast:
Ewan McGregor     ...    Michael
Eva Green         ...    Susan
Connie Nielsen
Stephen Dillane   ...    Samuel


[img]http://img11.imageshack.us/img11/7838/35510512.png[/img]
[img]http://img94.imageshack.us/img94/6412/pepel.png[/img]
[img]http://img714.imageshack.us/img714/6756/pepepes.png[/img]
[img]http://img39.imageshack.us/img39/66/pepepepek.png[/img]
[img]http://img266.imageshack.us/img266/307/pepepepepe.png[/img]




Greetz

ViSiON,SPK,SANTi,3LT0N,FUSiON,YanKeeS,MAGNET,THC,LKRG,Feel-Free,FANTASIA-PLAY,FANTASIA-M,FLAWL3SS,
WBZ,ZMG,BHRG,NOVA,D2U,Vik,Rapeseed,T0XiC,SAFC,goldadvance,MEMORY100,KaN1vE,Unevano,Pinnz,Wayne
Mr Hive,and most P2P groups
Great Work Guys :D

LOOKING FOR ANYTHING YOU WANT TO LOOK AND SOUND BETTER

CM8@hushmail.com